%FSLAX24Y24*%
%MOIN*%
G70*
G01*
G75*
G04 Layer_Color=32896*
%ADD10C,0.0060*%
%ADD11C,0.0200*%
%ADD12C,0.0100*%
%ADD13C,0.0250*%
%ADD14C,0.0120*%
%ADD15C,0.0330*%
%ADD16R,0.0197X0.0236*%
%ADD17R,0.0315X0.0354*%
%ADD18R,0.0217X0.0472*%
%ADD19R,0.1575X0.1181*%
%ADD20R,0.0236X0.0394*%
%ADD21R,0.0394X0.0394*%
%ADD22R,0.2156X0.2156*%
%ADD23O,0.0118X0.0295*%
%ADD24O,0.0295X0.0118*%
%ADD25O,0.0669X0.0177*%
%ADD26R,0.0354X0.0315*%
%ADD27R,0.0266X0.0098*%
%ADD28R,0.0591X0.0937*%
%ADD29R,0.0512X0.0295*%
%ADD30R,0.0128X0.0197*%
%ADD31R,0.0630X0.0520*%
%ADD32R,0.0709X0.0276*%
%ADD33R,0.0906X0.0276*%
%ADD34R,0.0276X0.0709*%
%ADD35R,0.1600X0.0600*%
%ADD36R,0.0433X0.0256*%
%ADD37R,0.0827X0.0472*%
%ADD38R,0.0827X0.0315*%
%ADD39R,0.0236X0.0197*%
G04:AMPARAMS|DCode=40|XSize=19.7mil|YSize=23.6mil|CornerRadius=0mil|HoleSize=0mil|Usage=FLASHONLY|Rotation=135.000|XOffset=0mil|YOffset=0mil|HoleType=Round|Shape=Rectangle|*
%AMROTATEDRECTD40*
4,1,4,0.0153,0.0014,-0.0014,-0.0153,-0.0153,-0.0014,0.0014,0.0153,0.0153,0.0014,0.0*
%
%ADD40ROTATEDRECTD40*%

%ADD41C,0.0150*%
%ADD42C,0.0290*%
%ADD43R,0.1600X0.1300*%
%ADD44C,0.0591*%
%ADD45C,0.0591*%
%ADD46R,0.0591X0.0591*%
%ADD47C,0.0472*%
%ADD48O,0.1575X0.0650*%
%ADD49C,0.0260*%
%ADD50C,0.0400*%
%ADD51C,0.0550*%
%ADD52C,0.0754*%
%ADD53C,0.0991*%
%ADD54O,0.1384X0.0794*%
%ADD55R,0.2280X0.2290*%
%ADD56R,0.1000X0.2790*%
%ADD57R,0.8990X0.0670*%
%ADD58R,0.0750X0.0500*%
%ADD59C,0.0530*%
%ADD60C,0.0098*%
%ADD61C,0.0079*%
%ADD62R,0.0277X0.0316*%
%ADD63R,0.0395X0.0434*%
%ADD64R,0.0297X0.0552*%
%ADD65R,0.1655X0.1261*%
%ADD66R,0.0316X0.0474*%
%ADD67R,0.0474X0.0474*%
%ADD68R,0.2236X0.2236*%
%ADD69O,0.0198X0.0375*%
%ADD70O,0.0375X0.0198*%
%ADD71O,0.0749X0.0257*%
%ADD72R,0.0434X0.0395*%
%ADD73R,0.0346X0.0178*%
%ADD74R,0.0671X0.1017*%
%ADD75R,0.0592X0.0375*%
%ADD76R,0.0208X0.0277*%
%ADD77R,0.0710X0.0600*%
%ADD78R,0.0789X0.0356*%
%ADD79R,0.0986X0.0356*%
%ADD80R,0.0356X0.0789*%
%ADD81R,0.1680X0.0680*%
%ADD82R,0.0513X0.0336*%
%ADD83R,0.0907X0.0552*%
%ADD84R,0.0907X0.0395*%
%ADD85R,0.0316X0.0277*%
G04:AMPARAMS|DCode=86|XSize=27.7mil|YSize=31.6mil|CornerRadius=0mil|HoleSize=0mil|Usage=FLASHONLY|Rotation=135.000|XOffset=0mil|YOffset=0mil|HoleType=Round|Shape=Rectangle|*
%AMROTATEDRECTD86*
4,1,4,0.0210,0.0014,-0.0014,-0.0210,-0.0210,-0.0014,0.0014,0.0210,0.0210,0.0014,0.0*
%
%ADD86ROTATEDRECTD86*%

%ADD87C,0.0370*%
%ADD88R,0.1680X0.1380*%
%ADD89C,0.0671*%
%ADD90C,0.0671*%
%ADD91R,0.0671X0.0671*%
%ADD92C,0.0552*%
%ADD93O,0.1655X0.0730*%
%ADD94C,0.0080*%
%ADD95C,0.0340*%
%ADD96C,0.0070*%
%ADD97R,0.2480X0.1720*%
D10*
X37047Y20532D02*
X37100Y20585D01*
X37207D01*
X37260Y20532D01*
Y20318D01*
X37207Y20265D01*
X37100D01*
X37047Y20318D01*
Y20425D01*
X37153D01*
X36940Y20265D02*
Y20585D01*
X36727Y20265D01*
Y20585D01*
X36620D02*
Y20265D01*
X36460D01*
X36407Y20318D01*
Y20532D01*
X36460Y20585D01*
X36620D01*
X37620Y20965D02*
X37700Y20925D01*
X37780Y20845D01*
Y20765D01*
X37740Y20725D01*
X37660D01*
X37620Y20765D01*
Y20805D01*
X37660Y20845D01*
X37780D01*
X37610Y21305D02*
X37770D01*
Y21185D01*
X37690Y21225D01*
X37650D01*
X37610Y21185D01*
Y21105D01*
X37650Y21065D01*
X37730D01*
X37770Y21105D01*
X40500Y20765D02*
X40660D01*
X40500Y20925D01*
Y20965D01*
X40540Y21005D01*
X40620D01*
X40660Y20965D01*
X40620Y21165D02*
X40540D01*
X40580D01*
Y21405D01*
X40620Y21365D01*
X46587Y21482D02*
X46640Y21535D01*
X46747D01*
X46800Y21482D01*
Y21268D01*
X46747Y21215D01*
X46640D01*
X46587Y21268D01*
Y21375D01*
X46693D01*
X46480Y21215D02*
Y21535D01*
X46267Y21215D01*
Y21535D01*
X46160D02*
Y21215D01*
X46000D01*
X45947Y21268D01*
Y21482D01*
X46000Y21535D01*
X46160D01*
X44457D02*
X44670D01*
Y21375D01*
X44563Y21428D01*
X44510D01*
X44457Y21375D01*
Y21268D01*
X44510Y21215D01*
X44617D01*
X44670Y21268D01*
X44290Y20665D02*
Y20985D01*
X44450Y20825D01*
X44237D01*
X41810Y23785D02*
X41703D01*
X41757D01*
Y24105D01*
X41810Y24052D01*
X31250Y26475D02*
Y26688D01*
X31143Y26795D01*
X31037Y26688D01*
Y26475D01*
Y26635D01*
X31250D01*
X30717Y26742D02*
X30770Y26795D01*
X30877D01*
X30930Y26742D01*
Y26528D01*
X30877Y26475D01*
X30770D01*
X30717Y26528D01*
X30610Y26475D02*
Y26688D01*
X30504Y26795D01*
X30397Y26688D01*
Y26475D01*
Y26635D01*
X30610D01*
X30290D02*
X30077D01*
X30184Y26742D02*
Y26528D01*
X37440Y26485D02*
Y26272D01*
X37333Y26165D01*
X37227Y26272D01*
Y26485D01*
X36907Y26432D02*
X36960Y26485D01*
X37067D01*
X37120Y26432D01*
Y26218D01*
X37067Y26165D01*
X36960D01*
X36907Y26218D01*
X36587Y26432D02*
X36640Y26485D01*
X36747D01*
X36800Y26432D01*
Y26218D01*
X36747Y26165D01*
X36640D01*
X36587Y26218D01*
X36480Y26112D02*
X36267D01*
X35947Y26485D02*
X36160D01*
Y26325D01*
X36054D01*
X36160D01*
Y26165D01*
X35627Y26485D02*
X35841D01*
Y26165D01*
X35627D01*
X35841Y26325D02*
X35734D01*
X38557Y22742D02*
X38610Y22795D01*
X38717D01*
X38770Y22742D01*
Y22688D01*
X38717Y22635D01*
X38610D01*
X38557Y22582D01*
Y22528D01*
X38610Y22475D01*
X38717D01*
X38770Y22528D01*
X38237Y22742D02*
X38290Y22795D01*
X38397D01*
X38450Y22742D01*
Y22688D01*
X38397Y22635D01*
X38290D01*
X38237Y22582D01*
Y22528D01*
X38290Y22475D01*
X38397D01*
X38450Y22528D01*
X38077Y22475D02*
Y22795D01*
X37970D02*
Y22475D01*
X38130Y22688D02*
X37970D01*
X37917D01*
X38130Y22582D02*
X37917D01*
X41630Y24685D02*
Y24898D01*
X41523Y25005D01*
X41417Y24898D01*
Y24685D01*
Y24845D01*
X41630D01*
X41097Y24952D02*
X41150Y25005D01*
X41257D01*
X41310Y24952D01*
Y24738D01*
X41257Y24685D01*
X41150D01*
X41097Y24738D01*
X40990Y24685D02*
Y24898D01*
X40884Y25005D01*
X40777Y24898D01*
Y24685D01*
Y24845D01*
X40990D01*
X40670D02*
X40457D01*
X42950Y20745D02*
Y20532D01*
X42843Y20425D01*
X42737Y20532D01*
Y20745D01*
X42417Y20692D02*
X42470Y20745D01*
X42577D01*
X42630Y20692D01*
Y20478D01*
X42577Y20425D01*
X42470D01*
X42417Y20478D01*
X42097Y20692D02*
X42150Y20745D01*
X42257D01*
X42310Y20692D01*
Y20478D01*
X42257Y20425D01*
X42150D01*
X42097Y20478D01*
X41990Y20372D02*
X41777D01*
X41457Y20745D02*
X41670D01*
Y20425D01*
X41457D01*
X41670Y20585D02*
X41564D01*
X41351Y20425D02*
Y20745D01*
X41137Y20425D01*
Y20745D01*
X43330Y26432D02*
X43277Y26485D01*
X43170D01*
X43117Y26432D01*
Y26378D01*
X43170Y26325D01*
X43223D01*
X43170D01*
X43117Y26272D01*
Y26218D01*
X43170Y26165D01*
X43277D01*
X43330Y26218D01*
X43010Y26165D02*
Y26218D01*
X42957D01*
Y26165D01*
X43010D01*
X42744Y26432D02*
X42690Y26485D01*
X42584D01*
X42530Y26432D01*
Y26378D01*
X42584Y26325D01*
X42637D01*
X42584D01*
X42530Y26272D01*
Y26218D01*
X42584Y26165D01*
X42690D01*
X42744Y26218D01*
X42424Y26485D02*
Y26272D01*
X42317Y26165D01*
X42210Y26272D01*
Y26485D01*
X28100Y23325D02*
X27993D01*
X28047D01*
Y23645D01*
X28100Y23592D01*
X27833D02*
X27780Y23645D01*
X27673D01*
X27620Y23592D01*
Y23378D01*
X27673Y23325D01*
X27780D01*
X27833Y23378D01*
Y23592D01*
X27514Y23378D02*
X27460Y23325D01*
X27354D01*
X27300Y23378D01*
Y23592D01*
X27354Y23645D01*
X27460D01*
X27514Y23592D01*
Y23538D01*
X27460Y23485D01*
X27300D01*
X27194Y23592D02*
X27140Y23645D01*
X27034D01*
X26980Y23592D01*
Y23378D01*
X27034Y23325D01*
X27140D01*
X27194Y23378D01*
Y23592D01*
X26554Y23325D02*
Y23645D01*
X26447Y23538D01*
X26341Y23645D01*
Y23325D01*
X26234Y23645D02*
Y23325D01*
Y23485D01*
X26021D01*
Y23645D01*
Y23325D01*
X25914Y23538D02*
X25701D01*
X25914Y23325D01*
X25701D01*
X27250Y23895D02*
Y24215D01*
X27090D01*
X27037Y24162D01*
Y24055D01*
X27090Y24002D01*
X27250D01*
X27143D02*
X27037Y23895D01*
X26717Y24215D02*
X26930D01*
Y24055D01*
X26823D01*
X26930D01*
Y23895D01*
X26290Y24215D02*
X26184D01*
X26237D01*
Y23895D01*
X26290D01*
X26184D01*
X26024D02*
Y24108D01*
X25864D01*
X25810Y24055D01*
Y23895D01*
X33353Y21115D02*
X33460Y21222D01*
Y21328D01*
X33353Y21435D01*
X32980Y21382D02*
X33033Y21435D01*
X33140D01*
X33193Y21382D01*
Y21168D01*
X33140Y21115D01*
X33033D01*
X32980Y21168D01*
X32874Y21115D02*
X32767Y21222D01*
Y21328D01*
X32874Y21435D01*
X32074Y21115D02*
X32287D01*
X32074Y21328D01*
Y21382D01*
X32127Y21435D01*
X32234D01*
X32287Y21382D01*
X31967D02*
X31914Y21435D01*
X31807D01*
X31754Y21382D01*
Y21168D01*
X31807Y21115D01*
X31914D01*
X31967Y21168D01*
Y21382D01*
X31647Y21115D02*
X31541D01*
X31594D01*
Y21435D01*
X31647Y21382D01*
X31167Y21115D02*
X31381D01*
X31167Y21328D01*
Y21382D01*
X31221Y21435D01*
X31327D01*
X31381Y21382D01*
X33290Y21995D02*
X33397D01*
X33450Y21942D01*
Y21728D01*
X33397Y21675D01*
X33290D01*
X33237Y21728D01*
Y21942D01*
X33290Y21995D01*
X33130Y21568D02*
Y21888D01*
X32970D01*
X32917Y21835D01*
Y21728D01*
X32970Y21675D01*
X33130D01*
X32650D02*
X32757D01*
X32810Y21728D01*
Y21835D01*
X32757Y21888D01*
X32650D01*
X32597Y21835D01*
Y21782D01*
X32810D01*
X32490Y21675D02*
Y21888D01*
X32330D01*
X32277Y21835D01*
Y21675D01*
X32170D02*
Y21888D01*
X32064Y21995D01*
X31957Y21888D01*
Y21675D01*
Y21835D01*
X32170D01*
X31851Y21995D02*
Y21675D01*
X31691D01*
X31637Y21728D01*
Y21942D01*
X31691Y21995D01*
X31851D01*
X31317Y21942D02*
X31371Y21995D01*
X31477D01*
X31531Y21942D01*
Y21888D01*
X31477Y21835D01*
X31371D01*
X31317Y21782D01*
Y21728D01*
X31371Y21675D01*
X31477D01*
X31531Y21728D01*
X31211Y21995D02*
Y21675D01*
X31051D01*
X30997Y21728D01*
Y21782D01*
X31051Y21835D01*
X31211D01*
X31051D01*
X30997Y21888D01*
Y21942D01*
X31051Y21995D01*
X31211D01*
X30571Y21675D02*
Y21995D01*
X30411D01*
X30358Y21942D01*
Y21835D01*
X30411Y21782D01*
X30571D01*
X30464D02*
X30358Y21675D01*
X30091D02*
X30198D01*
X30251Y21728D01*
Y21835D01*
X30198Y21888D01*
X30091D01*
X30038Y21835D01*
Y21782D01*
X30251D01*
X29931Y21888D02*
X29825Y21675D01*
X29718Y21888D01*
X29291Y21675D02*
Y21888D01*
X29185Y21995D01*
X29078Y21888D01*
Y21675D01*
Y21835D01*
X29291D01*
X41357Y23045D02*
X41570D01*
X41357Y23258D01*
Y23312D01*
X41410Y23365D01*
X41517D01*
X41570Y23312D01*
X40940Y22835D02*
Y22515D01*
X40780D01*
X40727Y22568D01*
Y22782D01*
X40780Y22835D01*
X40940D01*
X40620Y22515D02*
Y22728D01*
X40513Y22835D01*
X40407Y22728D01*
Y22515D01*
Y22675D01*
X40620D01*
X40087Y22782D02*
X40140Y22835D01*
X40247D01*
X40300Y22782D01*
Y22568D01*
X40247Y22515D01*
X40140D01*
X40087Y22568D01*
X41370Y22002D02*
X41317Y22055D01*
X41210D01*
X41157Y22002D01*
Y21948D01*
X41210Y21895D01*
X41263D01*
X41210D01*
X41157Y21842D01*
Y21788D01*
X41210Y21735D01*
X41317D01*
X41370Y21788D01*
D12*
X31810Y25655D02*
X36840D01*
Y24345D02*
Y25655D01*
X31810Y24345D02*
X36840D01*
X31810D02*
Y25655D01*
D96*
X37450Y20155D02*
X37710Y20415D01*
X36500Y20155D02*
X37450D01*
D97*
X35330Y21965D02*
D03*
M02*
