%FSLAX24Y24*%
%MOIN*%
G70*
G01*
G75*
G04 Layer_Physical_Order=2*
G04 Layer_Color=32768*
%ADD10C,0.0060*%
%ADD11C,0.0200*%
%ADD12C,0.0100*%
%ADD13C,0.0250*%
%ADD14C,0.0120*%
%ADD15C,0.0330*%
%ADD16R,0.0197X0.0236*%
%ADD17R,0.0315X0.0354*%
%ADD18R,0.0217X0.0472*%
%ADD19R,0.1575X0.1181*%
%ADD20R,0.0236X0.0394*%
%ADD21R,0.0394X0.0394*%
%ADD22R,0.2156X0.2156*%
%ADD23O,0.0118X0.0295*%
%ADD24O,0.0295X0.0118*%
%ADD25O,0.0669X0.0177*%
%ADD26R,0.0354X0.0315*%
%ADD27R,0.0266X0.0098*%
%ADD28R,0.0591X0.0937*%
%ADD29R,0.0512X0.0295*%
%ADD30R,0.0128X0.0197*%
%ADD31R,0.0630X0.0520*%
%ADD32R,0.0709X0.0276*%
%ADD33R,0.0906X0.0276*%
%ADD34R,0.0276X0.0709*%
%ADD35R,0.1600X0.0600*%
%ADD36R,0.0433X0.0256*%
%ADD37R,0.0827X0.0472*%
%ADD38R,0.0827X0.0315*%
%ADD39R,0.0236X0.0197*%
G04:AMPARAMS|DCode=40|XSize=19.7mil|YSize=23.6mil|CornerRadius=0mil|HoleSize=0mil|Usage=FLASHONLY|Rotation=135.000|XOffset=0mil|YOffset=0mil|HoleType=Round|Shape=Rectangle|*
%AMROTATEDRECTD40*
4,1,4,0.0153,0.0014,-0.0014,-0.0153,-0.0153,-0.0014,0.0014,0.0153,0.0153,0.0014,0.0*
%
%ADD40ROTATEDRECTD40*%

%ADD41C,0.0150*%
%ADD42C,0.0290*%
%ADD43R,0.1600X0.1300*%
%ADD44C,0.0591*%
%ADD45C,0.0591*%
%ADD46R,0.0591X0.0591*%
%ADD47C,0.0472*%
%ADD48O,0.1575X0.0650*%
%ADD49C,0.0260*%
%ADD50C,0.0400*%
%ADD51C,0.0550*%
%ADD52C,0.0754*%
%ADD53C,0.0991*%
%ADD54O,0.1384X0.0794*%
D50*
X24900Y21295D02*
X26200Y19995D01*
X47800D01*
X49100Y21295D01*
Y26055D01*
X47800Y27355D02*
X49100Y26055D01*
X26200Y27355D02*
X47800D01*
X24900Y26055D02*
X26200Y27355D01*
X24900Y25725D02*
Y26055D01*
Y25725D02*
X25380D01*
Y21625D02*
Y25725D01*
X24900Y21625D02*
X25380D01*
X24900Y21295D02*
Y21625D01*
D51*
X40835Y21910D02*
D03*
X44976Y21391D02*
D03*
X44550Y20495D02*
D03*
X41100Y23255D02*
D03*
X41435Y23940D02*
D03*
X31500Y26725D02*
D03*
X38700Y25335D02*
D03*
X39200Y22175D02*
D03*
X41200Y24425D02*
D03*
X40900Y25875D02*
D03*
X40674Y26101D02*
D03*
X40500Y23175D02*
D03*
X41250Y21225D02*
D03*
X41000Y26875D02*
D03*
X37750Y26425D02*
D03*
X43700Y26475D02*
D03*
Y26075D02*
D03*
X38100Y26175D02*
D03*
X29150Y26525D02*
D03*
X31850Y25975D02*
D03*
X30400Y24375D02*
D03*
X37450Y20578D02*
D03*
X31000Y24725D02*
D03*
X40850Y21475D02*
D03*
X45250Y20965D02*
D03*
X44400Y24575D02*
D03*
X45300Y24775D02*
D03*
Y25125D02*
D03*
X45200Y21925D02*
D03*
X44850D02*
D03*
X45700Y21625D02*
D03*
X46050Y22975D02*
D03*
X45000Y24175D02*
D03*
X38200Y22175D02*
D03*
X43950Y24175D02*
D03*
X44300D02*
D03*
X42693Y24525D02*
D03*
X44050Y20475D02*
D03*
X45750Y23825D02*
D03*
X45200Y22875D02*
D03*
X30170Y26265D02*
D03*
X46330Y26145D02*
D03*
X46160Y26405D02*
D03*
X40690Y24145D02*
D03*
X41562Y20987D02*
D03*
X40730Y23595D02*
D03*
X30950Y23475D02*
D03*
X40547Y22222D02*
D03*
D52*
X38100Y21525D02*
D03*
X39100Y20525D02*
D03*
Y21525D02*
D03*
X40100Y20525D02*
D03*
Y21525D02*
D03*
D53*
X48037Y24561D02*
D03*
Y22789D02*
D03*
D54*
Y25919D02*
D03*
Y21431D02*
D03*
M02*
