%FSLAX24Y24*%
%MOIN*%
G70*
G01*
G75*
G04 Layer_Color=8421504*
%ADD10C,0.0060*%
%ADD11C,0.0200*%
%ADD12C,0.0100*%
%ADD13C,0.0250*%
%ADD14C,0.0120*%
%ADD15C,0.0330*%
%ADD16R,0.0197X0.0236*%
%ADD17R,0.0315X0.0354*%
%ADD18R,0.0217X0.0472*%
%ADD19R,0.1575X0.1181*%
%ADD20R,0.0236X0.0394*%
%ADD21R,0.0394X0.0394*%
%ADD22R,0.2156X0.2156*%
%ADD23O,0.0118X0.0295*%
%ADD24O,0.0295X0.0118*%
%ADD25O,0.0669X0.0177*%
%ADD26R,0.0354X0.0315*%
%ADD27R,0.0266X0.0098*%
%ADD28R,0.0591X0.0937*%
%ADD29R,0.0512X0.0295*%
%ADD30R,0.0128X0.0197*%
%ADD31R,0.0630X0.0520*%
%ADD32R,0.0709X0.0276*%
%ADD33R,0.0906X0.0276*%
%ADD34R,0.0276X0.0709*%
%ADD35R,0.1600X0.0600*%
%ADD36R,0.0433X0.0256*%
%ADD37R,0.0827X0.0472*%
%ADD38R,0.0827X0.0315*%
%ADD39R,0.0236X0.0197*%
G04:AMPARAMS|DCode=40|XSize=19.7mil|YSize=23.6mil|CornerRadius=0mil|HoleSize=0mil|Usage=FLASHONLY|Rotation=135.000|XOffset=0mil|YOffset=0mil|HoleType=Round|Shape=Rectangle|*
%AMROTATEDRECTD40*
4,1,4,0.0153,0.0014,-0.0014,-0.0153,-0.0153,-0.0014,0.0014,0.0153,0.0153,0.0014,0.0*
%
%ADD40ROTATEDRECTD40*%

%ADD41C,0.0150*%
%ADD42C,0.0290*%
%ADD43R,0.1600X0.1300*%
%ADD44C,0.0591*%
%ADD45C,0.0591*%
%ADD46R,0.0591X0.0591*%
%ADD47C,0.0472*%
%ADD48O,0.1575X0.0650*%
%ADD49C,0.0260*%
%ADD50C,0.0400*%
%ADD51C,0.0550*%
%ADD52C,0.0754*%
%ADD53C,0.0991*%
%ADD54O,0.1384X0.0794*%
%ADD55R,0.2280X0.2290*%
%ADD56R,0.1000X0.2790*%
%ADD57R,0.8990X0.0670*%
%ADD58R,0.0750X0.0500*%
%ADD59C,0.0530*%
%ADD60C,0.0098*%
%ADD61C,0.0079*%
D16*
X46500Y25822D02*
D03*
Y25428D02*
D03*
X34600Y24828D02*
D03*
Y25222D02*
D03*
X44300Y25422D02*
D03*
Y25028D02*
D03*
X29440Y22158D02*
D03*
Y22552D02*
D03*
X29800Y22258D02*
D03*
Y22652D02*
D03*
X40700Y26478D02*
D03*
Y26872D02*
D03*
X46850Y25428D02*
D03*
Y25822D02*
D03*
X41250Y21528D02*
D03*
Y21922D02*
D03*
X44900Y22872D02*
D03*
Y22478D02*
D03*
X40360Y24022D02*
D03*
Y23628D02*
D03*
X30150Y24578D02*
D03*
Y24972D02*
D03*
X27450Y23678D02*
D03*
Y24072D02*
D03*
X31450Y24478D02*
D03*
Y24872D02*
D03*
X29450Y21328D02*
D03*
Y21722D02*
D03*
X34650Y21648D02*
D03*
Y22042D02*
D03*
X30600Y23472D02*
D03*
Y23078D02*
D03*
X35150Y22612D02*
D03*
Y22218D02*
D03*
X28350Y25768D02*
D03*
Y26162D02*
D03*
X30250Y25428D02*
D03*
Y25822D02*
D03*
D17*
X36176Y26825D02*
D03*
X35624D02*
D03*
X45274Y20575D02*
D03*
X45826D02*
D03*
D18*
X38200Y22664D02*
D03*
X38700D02*
D03*
X39200D02*
D03*
X39700D02*
D03*
Y24875D02*
D03*
X39200D02*
D03*
X38700D02*
D03*
X38200D02*
D03*
D19*
X38948Y23767D02*
D03*
D20*
X45326Y24169D02*
D03*
X46074D02*
D03*
Y23381D02*
D03*
D21*
X45405D02*
D03*
D22*
X43100Y22375D02*
D03*
D23*
X42116Y23763D02*
D03*
X42313D02*
D03*
X42509D02*
D03*
X42706D02*
D03*
X42903D02*
D03*
X43100D02*
D03*
X43297D02*
D03*
X43494D02*
D03*
X43691D02*
D03*
X43887D02*
D03*
X44084D02*
D03*
Y20987D02*
D03*
X43887D02*
D03*
X43691D02*
D03*
X43494D02*
D03*
X43297D02*
D03*
X43100D02*
D03*
X42903D02*
D03*
X42706D02*
D03*
X42509D02*
D03*
X42313D02*
D03*
X42116D02*
D03*
D24*
X44488Y23359D02*
D03*
Y23162D02*
D03*
Y22966D02*
D03*
Y22769D02*
D03*
Y22572D02*
D03*
Y22375D02*
D03*
Y22178D02*
D03*
Y21981D02*
D03*
Y21784D02*
D03*
Y21588D02*
D03*
Y21391D02*
D03*
X41712D02*
D03*
Y21588D02*
D03*
Y21784D02*
D03*
Y21981D02*
D03*
Y22178D02*
D03*
Y22375D02*
D03*
Y22572D02*
D03*
Y22769D02*
D03*
Y22966D02*
D03*
Y23162D02*
D03*
Y23359D02*
D03*
D25*
X33777Y24641D02*
D03*
Y24897D02*
D03*
Y25153D02*
D03*
Y25409D02*
D03*
X32123Y24641D02*
D03*
X32123Y24897D02*
D03*
Y25153D02*
D03*
X32123Y25409D02*
D03*
D26*
X45700Y21999D02*
D03*
Y22551D02*
D03*
Y25351D02*
D03*
Y24799D02*
D03*
X45800Y26399D02*
D03*
Y26951D02*
D03*
X38500Y26199D02*
D03*
Y26751D02*
D03*
X44800Y24949D02*
D03*
Y25501D02*
D03*
X43800Y25501D02*
D03*
Y24949D02*
D03*
D27*
X29855Y26020D02*
D03*
Y25823D02*
D03*
Y25627D02*
D03*
X29855Y25430D02*
D03*
X28745D02*
D03*
Y25627D02*
D03*
Y25823D02*
D03*
Y26020D02*
D03*
D28*
X29299Y25725D02*
D03*
D29*
X28705Y22381D02*
D03*
X33780Y21215D02*
D03*
D30*
X29000Y22775D02*
D03*
X28803D02*
D03*
X28606D02*
D03*
X28409D02*
D03*
Y21988D02*
D03*
X28606Y21988D02*
D03*
X28803D02*
D03*
X29000D02*
D03*
X34075Y20821D02*
D03*
X33878D02*
D03*
X33682D02*
D03*
X33485Y20821D02*
D03*
Y21609D02*
D03*
X33682D02*
D03*
X33878D02*
D03*
X34075D02*
D03*
D31*
X41500Y26225D02*
D03*
Y25325D02*
D03*
X43000Y26225D02*
D03*
Y25325D02*
D03*
D32*
X32050Y22125D02*
D03*
Y21125D02*
D03*
Y21625D02*
D03*
X30750D02*
D03*
Y21125D02*
D03*
X37020Y23115D02*
D03*
X35590D02*
D03*
D33*
X30850Y22125D02*
D03*
D34*
X35800Y23765D02*
D03*
X36800D02*
D03*
X36300D02*
D03*
X36300Y22465D02*
D03*
X36800D02*
D03*
X35800D02*
D03*
D35*
X26250Y23675D02*
D03*
D36*
X39228Y26101D02*
D03*
Y26849D02*
D03*
X40172D02*
D03*
Y26475D02*
D03*
Y26101D02*
D03*
X44178D02*
D03*
Y26849D02*
D03*
X45122D02*
D03*
Y26475D02*
D03*
Y26101D02*
D03*
D37*
X47013Y25053D02*
D03*
Y22297D02*
D03*
D38*
Y24069D02*
D03*
Y23281D02*
D03*
D39*
X30997Y25425D02*
D03*
X30603D02*
D03*
X41753Y26825D02*
D03*
X42147D02*
D03*
X34647Y22795D02*
D03*
X34253D02*
D03*
X34147Y25975D02*
D03*
X33753D02*
D03*
X33753Y24075D02*
D03*
X34147D02*
D03*
X34647Y22415D02*
D03*
X34253D02*
D03*
X38197Y25325D02*
D03*
X37803D02*
D03*
X42943Y24275D02*
D03*
X43337D02*
D03*
X43697Y20475D02*
D03*
X43303D02*
D03*
X34147Y26325D02*
D03*
X33753D02*
D03*
X33753Y23725D02*
D03*
X34147D02*
D03*
X32953Y26325D02*
D03*
X33347D02*
D03*
X27903Y23675D02*
D03*
X28297D02*
D03*
X46553Y23680D02*
D03*
X46947D02*
D03*
X46553Y24475D02*
D03*
X46947D02*
D03*
X29747Y24975D02*
D03*
X29353D02*
D03*
X30997Y26125D02*
D03*
X30603D02*
D03*
X30997Y26475D02*
D03*
X30603D02*
D03*
X28797Y26525D02*
D03*
X28403D02*
D03*
X37077Y20495D02*
D03*
X36683D02*
D03*
X27603Y25675D02*
D03*
X27997D02*
D03*
X27997Y24925D02*
D03*
X27603D02*
D03*
X30603Y25775D02*
D03*
X30997D02*
D03*
X27603Y26025D02*
D03*
X27997D02*
D03*
X41147Y22525D02*
D03*
X40753D02*
D03*
X41147Y22875D02*
D03*
X40753D02*
D03*
X28353Y24925D02*
D03*
X28747D02*
D03*
X33347Y25975D02*
D03*
X32953D02*
D03*
X33347Y24075D02*
D03*
X32953D02*
D03*
X46847Y21675D02*
D03*
X46453D02*
D03*
X45603Y25975D02*
D03*
X45997D02*
D03*
X32153D02*
D03*
X32547D02*
D03*
X35447Y25225D02*
D03*
X35053D02*
D03*
X35447Y24825D02*
D03*
X35053D02*
D03*
X32663Y21615D02*
D03*
X33057D02*
D03*
X35053D02*
D03*
X35447D02*
D03*
X27603Y25325D02*
D03*
X27997D02*
D03*
X30603Y25075D02*
D03*
X30997D02*
D03*
X42947Y26825D02*
D03*
X42553D02*
D03*
D40*
X29811Y21286D02*
D03*
X30089Y21564D02*
D03*
M02*
