M48
;Layer_Color=9474304
;FILE_FORMAT=2:4
INCH,LZ
;TYPE=PLATED
T1F00S00C0.0130
T2F00S00C0.0150
T3F00S00C0.0354
%
T01
X04215Y021425
X042628Y02143
X0431
X043572
X044045
Y021903
X043572
X0431
X042628
Y022375
X0431
X043572
X044045
Y022847
X043572
X0431
X042628
Y02332
X0431
X043572
X044045
X042155
Y022847
Y022375
Y021903
T02
X04795Y020725
X04805Y022175
X0474Y022775
X04695
X04805Y023675
Y025275
X04785Y026625
X0462Y026875
X04616Y026405
X04633Y026145
X0452Y025515
X0453Y025125
Y024775
X045Y024175
Y023525
X0452Y022875
Y021925
X04485
X044976Y021391
X04525Y020965
X04585Y020975
X0457Y021625
X04628Y022275
X0465Y022775
X04605Y022975
X04575Y023825
X0443Y024175
X04395
X0439Y024575
X0444
X04465Y025875
X0445Y026475
X04465Y026975
X04335Y026875
X0437Y026475
Y026075
X042693Y024525
X042Y024675
X0412Y024425
X041435Y02394
X04069Y024145
X04073Y023595
X0405Y023175
X0411Y023255
X040547Y022222
X040835Y02191
X04085Y021475
X04125Y021225
X041562Y020987
X04405Y020475
X04455Y020495
X04635Y020475
X0397Y022175
X0392
X0382
X03765Y022325
X0372
Y022705
X0376Y022775
X03762Y023135
X03775Y023525
Y024025
Y024525
Y024975
X0374Y024775
Y025225
X03745Y025675
X03705Y025575
X0371Y025975
X0367Y025925
X03625
X0358
X03535
X03495
X035Y026275
X0346Y026325
X03455Y025925
X0344Y026675
X03395
X0335
X03305
X0326
X03224Y026405
X03175Y026385
X03185Y025975
X03145Y026015
Y025635
Y025265
X0315Y024025
X0319
X0323
Y023525
X0319
X0315
X0316Y022625
X0321
X03255
X03301
X03345Y022655
X03327Y022275
X03276
X03378Y022085
X03388Y022485
X03387Y022855
X0332Y023525
X03275
X03455Y023725
Y024125
X035
X03543Y024105
Y023695
X03501Y023575
X03503Y023095
X03494Y020835
X03542Y020845
X03591
X03648
X03679Y021175
X037Y021475
X03735Y021325
X0376Y021775
X0372Y021875
X03745Y020578
X03615Y020475
X0357
X0352
X0347
X03425
X0338
X03335
X03299Y020415
X0326
X03225Y020405
X0318Y020425
X03135
X0316Y020675
X03205
X03259Y020805
X03319Y020825
X03378Y021215
X03438Y020835
X0374Y023725
Y024275
X03845Y023765
X038948Y023767
X03944Y023765
X04025Y025025
X0409Y025875
X040674Y026101
X0397Y026025
Y026475
Y026925
X041Y026875
X0414
X038126Y026751
X0379Y027025
X03745
X03695
X0367Y026675
X03725
X03775Y026425
X0381Y026175
X0387Y025335
X0352Y027025
X0315Y026725
X0307Y027025
X03025
X02975
X02976Y026545
X02915Y026525
X02925Y027025
X0288
X02835
X0279
Y026475
X0272Y025925
X0268
X02635
Y025525
Y025025
Y024525
X02578Y024555
Y025025
Y025525
X0257Y025925
X02595Y026475
X0263Y026925
X027Y025525
X02725Y025275
X027Y024975
Y024525
X02735
X0277Y024575
X02805
X0279Y024275
X02825
X0286
X029Y024175
X02925Y023925
X02935Y023575
X02952Y023265
X02932Y022925
X02982Y023005
X0302Y023375
X03015Y023775
X02975Y023725
X02965Y024175
X0304Y024375
X0306Y024725
X031
X03105Y024025
X03095Y023475
X03115Y022625
X03065
X02914Y022385
X028705Y022381
X0282Y022375
X02774Y022365
X0276Y022825
X02725
X0269
X02635
Y022325
Y021825
Y021375
X0257
Y021825
Y022375
Y022825
X02705Y022325
Y021825
Y021375
X02755Y021425
X0276Y021025
X02805
Y021425
X028Y021925
X02755
X028Y022825
X0282Y020625
X02855Y020475
X029
X02945
X0299
X03035
X0307Y020675
X03115
X03095Y020425
X0278Y020475
X0263
X02595Y020875
X02929Y025495
X0293Y025955
X03017Y026265
T03
X0381Y020525
X0391
Y021525
X0401
Y020525
X0381Y021525
M30
